<?xml version="1.0" standalone="no"?>
<!DOCTYPE svg PUBLIC "-//W3C//DTD SVG 20010904//EN"
 "http://www.w3.org/TR/2001/REC-SVG-20010904/DTD/svg10.dtd">
<svg version="1.0" xmlns="http://www.w3.org/2000/svg"
 width="521.000000pt" height="521.000000pt" viewBox="0 0 521.000000 521.000000"
 preserveAspectRatio="xMidYMid meet">
<metadata>
Created by potrace 1.11, written by Peter Selinger 2001-2013
</metadata>
<g transform="translate(0.000000,521.000000) scale(0.100000,-0.100000)"
fill="#000000" stroke="none">
<path d="M2575 4919 c-245 -350 -608 -583 -1050 -675 -206 -42 -518 -30 -752
31 l-53 13 -1 -31 c0 -18 -2 -52 -4 -77 -12 -144 -6 -566 9 -705 2 -16 7 -60
10 -97 4 -37 8 -75 10 -85 2 -10 7 -40 10 -68 13 -99 27 -181 46 -265 10 -47
21 -96 24 -110 19 -105 114 -419 178 -590 95 -256 256 -589 388 -805 100 -164
287 -433 334 -481 6 -6 22 -26 36 -44 34 -45 72 -89 179 -209 157 -176 415
-418 579 -543 31 -24 68 -53 82 -66 14 -12 28 -22 31 -22 6 0 148 107 159 120
3 3 27 24 55 45 27 22 56 47 65 55 9 8 38 35 65 58 212 186 512 517 687 757
218 298 432 686 558 1010 17 44 37 94 45 110 52 119 167 521 201 705 24 127
37 199 40 220 2 14 6 39 9 55 2 17 7 56 10 88 4 32 8 68 11 80 2 12 7 60 10
107 3 47 8 105 10 130 10 132 2 629 -12 651 -2 4 -30 0 -62 -8 -64 -17 -74
-19 -152 -32 -103 -18 -152 -22 -279 -22 -146 -1 -192 4 -361 37 -180 35 -441
151 -610 271 -154 111 -289 253 -433 457 -12 18 -18 13 -72 -65z"/>
</g>
</svg>
